<?xml version="1.0" encoding="UTF-8" standalone="no"?>
<svg width="368px" height="244px" viewBox="0 0 368 244" version="1.1" xmlns="http://www.w3.org/2000/svg" xmlns:xlink="http://www.w3.org/1999/xlink">
    <!-- Generator: Sketch 39.1 (31720) - http://www.bohemiancoding.com/sketch -->
    <title>netmap</title>
    <desc>Created with Sketch.</desc>
    <defs></defs>
    <g id="Microsite" stroke="none" stroke-width="1" fill="none" fill-rule="evenodd">
        <g id="Projects-Page" transform="translate(-1004.000000, -268.000000)">
            <g id="netmap" transform="translate(1004.000000, 268.000000)">
                <rect id="Rectangle" fill="#4990E2" x="0" y="0" width="368" height="244"></rect>
                <path d="M226.685,161.0385 C224.826,155.3185 219.4635,151.1 213.1,151.1 L205.95,151.1 L205.95,129.65 C205.95,125.701164 202.748836,122.5 198.8,122.5 L155.9,122.5 L155.9,108.2 L170.2,108.2 C174.148836,108.2 177.35,104.998836 177.35,101.05 L177.35,86.75 L191.65,86.75 C199.547672,86.75 205.95,80.3476719 205.95,72.45 L205.95,69.5185 C226.8995,77.9555 241.7,98.476 241.7,122.5 C241.7,137.372 235.98,150.8855 226.685,161.0385 L226.685,161.0385 Z M177.35,179.1995 C149.1075,175.696 127.3,151.672 127.3,122.5 C127.3,118.067 127.872,113.777 128.8015,109.7015 L163.05,143.95 L163.05,151.1 C163.05,158.997672 169.452328,165.4 177.35,165.4 L177.35,179.1995 Z M184.5,51 C145.01164,51 113,83.0116404 113,122.5 C113,141.462979 120.533014,159.649284 133.941865,173.058135 C147.350716,186.466986 165.537021,194 184.5,194 C203.462979,194 221.649284,186.466986 235.058135,173.058135 C248.466986,159.649284 256,141.462979 256,122.5 C256,103.537021 248.466986,85.3507162 235.058135,71.9418651 C221.649284,58.5330141 203.462979,51 184.5,51 L184.5,51 Z" id="globe" fill="#FFFFFF"></path>
            </g>
        </g>
    </g>
</svg>