<?xml version="1.0" encoding="UTF-8" standalone="no"?>
<svg width="199px" height="232px" viewBox="0 0 199 232" version="1.1" xmlns="http://www.w3.org/2000/svg" xmlns:xlink="http://www.w3.org/1999/xlink">
    <!-- Generator: Sketch 3.7.2 (28276) - http://www.bohemiancoding.com/sketch -->
    <title>vector-logo-orange-moose</title>
    <desc>Created with Sketch.</desc>
    <defs>
        <path d="M171.5568,2.05654872 C175.364299,5.53518205 178.022475,9.78923077 181.236363,17.5474359 C183.6864,23.4623077 184.544085,24.8664821 186.006933,25.3577 C186.584331,25.5517564 186.8176,25.5292718 187.445867,25.2195513 C188.959584,24.4733051 190.345824,20.5858974 191.684235,13.3341026 C192.607381,8.33076923 193.512896,5.59716667 194.437867,5.0202641 C195.10464,4.6044 196.337259,6.18358974 197.353632,8.75615385 C199.494603,14.1753513 199.591883,20.9505128 197.643243,28.9112821 C195.302848,38.4723077 190.314411,48.0311051 183.160683,56.6625641 C180.508181,59.8630769 175.191221,65.2042872 172.752533,67.1183154 C166.672533,71.8901179 165.364725,72.9805205 163.59808,74.7515385 C160.203008,78.1546154 158.687467,80.9743077 158.687467,83.8871795 C158.687467,86.6598769 159.599467,88.1904513 163.369067,91.7444385 C166.469867,94.667641 168.747029,97.5805128 170.354379,100.679744 C173.369653,106.493333 174.067029,112.613605 171.779733,113.187469 C171.489312,113.260392 170.543467,113.270926 169.672,113.210967 C167.536907,113.064108 164.828267,112.113879 158.728,109.371162 C150.52,105.680646 147.906411,104.751282 145.737067,104.751282 C143.620619,104.751282 140.074965,107.202308 136.711712,110.990256 C131.121963,117.285746 123.309568,129.362821 118.118059,139.734103 C113.055648,149.847521 110.522923,160.719744 109.468651,176.864103 C109.034133,183.519954 109.217344,199.551282 109.883509,213.123077 C110.173728,219.037949 110.544405,231.566133 110.432533,231.677949 C110.3312,231.779231 101.9408,231.779231 101.839467,231.677949 C101.816971,231.655464 101.887904,230.462564 101.99856,229.004103 C102.559136,221.610513 102.55184,209.525944 101.982955,202.691026 C100.414517,183.852564 95.224832,172.535915 86.9232,169.852144 C83.8554347,168.86039 79.9312,169.156944 74.216,170.8125 C65.0757333,173.460215 56.390656,179.202097 49.9874027,186.830256 C45.8365867,191.775251 43.6516373,196.674872 41.2883413,206.337179 C38.607872,217.295897 38.0379733,219.479741 37.1336747,222.258718 C36.052448,225.580769 34.728224,228.543674 33.4487893,230.503077 L32.6288,231.758974 L23.9749333,231.758974 L24.278528,230.786667 C25.448928,227.039231 26.5668373,222.029415 26.9997333,218.592308 C27.6077333,213.762774 27.6107733,204.352051 27.006016,198.214359 C26.1300907,189.321795 23.673568,180.551174 19.999424,173.197692 C17.847712,168.890977 16.1625387,166.715641 9.65876267,159.848718 C5.34216533,155.291026 3.34549333,152.91029 2.18299733,150.935897 C1.38388267,149.578718 0.606453333,147.878192 0.729066667,147.755641 C0.773653333,147.711077 1.35733333,147.95071 2.02613333,148.287979 C9.51851733,152.068028 18.8272,154.747141 28.5146667,155.911479 C32.191648,156.353474 40.3301333,156.512892 44.5253333,156.225251 C57.1312,155.360708 69.2101333,151.975456 81.816,145.773956 C94.2394667,139.662192 104.808533,132.131264 117.0192,120.690038 C122.389867,115.657941 129.213248,108.279949 131.104331,105.460256 C133.151061,102.408426 133.710219,100.720256 134.116363,96.3651282 C134.490283,92.354359 135.089163,90.4125795 136.95248,87.1687179 C137.685525,85.8925641 138.229077,84.8096564 138.167467,84.7480769 C138.106059,84.6867 137.164267,84.7496974 136.069867,84.8884538 C119.917333,86.9367821 105.685269,80.9583051 95.881472,68.0061538 C92.186656,63.1247641 88.7305813,56.115641 86.6822293,49.35 C85.5598613,45.6430769 82.8540587,34.7404692 82.2079573,31.3217949 C81.7213547,28.7480154 81.6319787,27.7566667 81.6234667,24.8397436 C81.6137387,21.5379487 81.635424,21.3493615 82.1477653,20.2617949 C82.7490773,18.985641 83.6085867,18.2564103 84.5114667,18.2564103 C86.5932587,18.2564103 88.3272747,23.0774359 90.0126507,33.55 C90.3549547,35.6769231 90.82352,37.9152564 91.060032,38.5533333 C91.548256,39.87 92.606176,41.2055051 93.5504,41.6975333 C94.3776853,42.1285897 96.3674667,42.1026615 97.4213333,41.6470949 C99.6184427,40.6974744 102.804768,37.7025641 104.893856,34.6235897 C105.612715,33.5641795 106.479115,31.8484615 107.236075,29.9848718 C109.976533,23.2394872 112.142432,20.0681436 114.242667,19.7258103 C114.8304,19.6299974 115.033067,19.7148718 115.6208,20.3023077 C116.090581,20.7718513 116.358304,21.2746154 116.461867,21.8823077 C116.604139,22.7166692 116.522667,22.9558974 115.185067,25.6297436 C114.397707,27.2038692 112.556075,30.5317949 111.082688,33.0435897 C105.343168,42.8274359 103.276373,47.7683795 102.575147,53.3810256 C101.626059,60.9771795 104.868523,67.9605769 111.344533,72.2681026 C118.915957,77.3042513 130.8816,79.1481923 140.812267,76.8089821 C151.168533,74.3695026 163.380821,66.9832051 170.505163,58.8502564 C176.455253,52.0576744 179.220437,45.4202564 178.935893,38.6141026 C178.820373,35.8503179 178.599061,34.9882051 175.556629,25.4474359 C171.306101,12.1187179 169.061771,3.07342051 169.5352,1.18025641 C169.706453,0.495589744 169.976,0.612469231 171.5568,2.05654872 L171.5568,2.05654872 Z" id="path-1"></path>
    </defs>
    <g id="Logo/Cards" stroke="none" stroke-width="1" fill="none" fill-rule="evenodd">
        <g id="vector-logo-orange-moose" transform="translate(-1.000000, 0.000000)">
            <g id="flying-moose-logo-white" transform="translate(0.450667, 0.000000)">
                <mask id="mask-2" fill="white">
                    <use xlink:href="#path-1"></use>
                </mask>
                <g id="Clip-2"></g>
                <polygon id="Fill-1" fill="#FFFFFF" mask="url(#mask-2)" points="-2.93515755 -2.01215385 201.693322 -2.01215385 201.693322 234.526 -2.93515755 234.526"></polygon>
            </g>
        </g>
    </g>
</svg>