<?xml version="1.0" encoding="UTF-8" standalone="no"?>
<svg width="608px" height="395px" viewBox="0 0 608 395" version="1.1" xmlns="http://www.w3.org/2000/svg" xmlns:xlink="http://www.w3.org/1999/xlink" xmlns:sketch="http://www.bohemiancoding.com/sketch/ns">
    <!-- Generator: Sketch 3.5.1 (25234) - http://www.bohemiancoding.com/sketch -->
    <title>vector-logo-white-moose</title>
    <desc>Created with Sketch.</desc>
    <defs>
        <path d="M171.0912,0.507625641 C170.26736,1.19533077 169.984032,2.1674359 170.005312,4.23358974 C170.046251,8.19918718 171.561792,14.0782051 176.99184,31.3366667 C177.947819,34.3751282 178.871979,37.5420154 179.042827,38.365641 C179.844373,42.2273231 179.045867,47.0151282 176.877333,51.35 C172.005835,61.0878641 160.0256,70.6336974 147.136,75.0473667 C141.218133,77.0740205 136.394667,77.5994718 130.274133,76.8844205 C121.762133,75.8900333 114.985365,72.7026872 111.3856,68.0007692 C107.883115,63.425859 107.1448,57.5282051 109.247669,50.9246154 C110.505216,46.9756282 112.240448,43.4297436 116.5232,36.0564103 C119.923339,30.2023077 121.892448,26.3574385 122.093899,25.1787179 C122.460928,23.0315385 121.258101,20.5517487 119.390933,19.6063821 C117.4656,18.6316436 115.661056,18.9887641 113.777067,20.7172436 C111.661835,22.6576051 110.023275,25.4825641 107.711253,31.1746154 C106.139776,35.0435897 103.989483,37.9791487 101.191467,40.0746744 C97.6814827,42.7037538 96.7332053,41.8902564 95.6574507,35.3271795 C93.8674987,24.4089744 92.275552,19.895441 89.6192,18.2086897 C88.556416,17.5337462 87.0250667,17.4134231 85.8293333,17.9109205 C84.7219627,18.3715513 83.390848,19.75 82.8209493,21.0261538 C81.4073493,24.1918256 81.6213653,30.0807692 83.4295573,37.7782051 C84.6619733,43.0246154 87.1752427,52.3425641 87.964224,54.5910256 C91.6610667,65.124359 97.2747307,73.583841 104.677333,79.7768333 C112.766976,86.5442974 123.6672,90.2951769 134.104533,89.9030128 C135.361067,89.8558154 136.394667,89.8809333 136.394667,89.9587179 C136.394667,90.0373128 136.127755,90.7689744 135.796192,91.5994872 C135.047744,93.4744205 134.636939,95.5292308 134.46832,98.2435897 C134.117707,103.881962 132.585952,106.244872 122.938411,116.028718 C114.229621,124.860513 106.948011,131.040744 98.496,136.774118 C83.1346773,147.194623 67.6906667,153.225969 51.072,155.294756 C47.4092053,155.750728 36.5002667,155.817169 32.7306667,155.406572 C21.3408,154.165462 10.7395093,150.81019 2.26986667,145.765533 C1.216,145.137787 0.287786667,144.630769 0.192533333,144.630769 C0.0956586667,144.630769 0.0579626667,144.914359 0.106602667,145.278974 C0.667584,149.492308 1.17080533,151.191213 2.58420267,153.644872 C4.351456,156.712705 5.69290667,158.344359 11.5765227,164.583333 C17.1737707,170.518462 18.6891093,172.48779 20.61728,176.332051 C24.1183467,183.3116 26.3872,191.382564 27.3938453,200.437179 C27.5717867,202.039056 27.664,205.562051 27.664,210.767949 C27.664,219.255385 27.5742187,220.342344 26.4342187,225.65641 C25.895328,228.168205 24.3463467,233.583959 23.6996373,235.217436 C23.4831893,235.764359 23.3066667,236.250918 23.3066667,236.301154 C23.3066667,236.35139 26.3466667,236.392308 30.0757333,236.392308 L36.8448,236.392308 L37.8885333,235.014872 C39.372256,233.056482 41.3966933,228.856923 42.546016,225.352564 C43.6144747,222.094726 43.938336,220.875897 46.3044693,211.21359 C49.4792427,198.249487 51.2217707,194.509344 56.9693973,188.323846 C63.409536,181.392913 72.7370667,176.174456 81.8773333,174.388651 C86.1738667,173.549226 88.9289173,173.872315 91.504,175.517541 C98.2226027,179.810279 102.217973,192.982821 102.717547,212.489744 C102.918997,220.349231 102.664245,228.646662 102.023616,235.095897 L101.9008,236.331538 L108.842133,236.453077 C112.652267,236.519721 115.856629,236.530254 115.9456,236.476169 C116.288309,236.268338 116.193664,232.199231 115.333952,210.160256 C114.739733,194.927436 114.671232,190.862379 114.900448,184.414359 C115.305173,173.030256 116.174411,165.712426 118.052725,157.878462 C119.840853,150.421267 122.339733,144.448462 127.273451,135.839487 C136.258475,120.161026 145.133653,109.384615 149.061333,109.384615 C150.289696,109.384615 153.560533,110.598582 159.316267,113.1912 C167.6864,116.961121 170.472053,117.901828 173.381333,117.940113 C175.2864,117.965231 176.252309,117.623708 177.373867,116.527836 C178.789899,115.144121 179.112949,112.544615 178.338965,108.756667 C177.155392,102.963333 173.978795,97.4809359 169.024,92.6799641 C165.68,89.4399513 165.22096,88.9375923 164.778539,88.034359 C164.279979,87.0160692 164.222016,85.1174359 164.65248,83.9020513 C165.642101,81.1090974 168.8416,77.8119615 175.712,72.5047821 C179.339733,69.7025103 181.75856,67.4959795 184.691147,64.3141026 C192.483275,55.8590769 197.95568,47.1569231 201.327445,37.8592308 C204.170453,30.02 205.333152,21.3506615 204.327317,15.4961538 C203.397888,10.0876923 201.310421,5.71818205 199.160533,4.68105385 C197.6,3.92832564 196.410144,4.19510256 195.194144,5.57051282 C193.834859,7.10817692 193.277931,8.79128205 192.011061,15.1923077 C191.076971,19.9120513 190.299947,22.9332949 189.750517,23.9835897 L189.432533,24.5912821 L188.733333,23.1935897 C188.346848,22.4212128 187.312032,20.0741026 186.420096,17.9471795 C183.268427,10.4320513 181.257973,7.15821026 177.43872,3.32205128 C174.877419,0.749487179 173.747147,0 172.4288,0 C171.9424,0 171.496533,0.169141026 171.0912,0.507625641 L171.0912,0.507625641 Z M174.5568,4.05654872 C178.364299,7.53518205 181.022475,11.7892308 184.236363,19.5474359 C186.6864,25.4623077 187.544085,26.8664821 189.006933,27.3577 C189.584331,27.5517564 189.8176,27.5292718 190.445867,27.2195513 C191.959584,26.4733051 193.345824,22.5858974 194.684235,15.3341026 C195.607381,10.3307692 196.512896,7.59716667 197.437867,7.0202641 C198.10464,6.6044 199.337259,8.18358974 200.353632,10.7561538 C202.494603,16.1753513 202.591883,22.9505128 200.643243,30.9112821 C198.302848,40.4723077 193.314411,50.0311051 186.160683,58.6625641 C183.508181,61.8630769 178.191221,67.2042872 175.752533,69.1183154 C169.672533,73.8901179 168.364725,74.9805205 166.59808,76.7515385 C163.203008,80.1546154 161.687467,82.9743077 161.687467,85.8871795 C161.687467,88.6598769 162.599467,90.1904513 166.369067,93.7444385 C169.469867,96.667641 171.747029,99.5805128 173.354379,102.679744 C176.369653,108.493333 177.067029,114.613605 174.779733,115.187469 C174.489312,115.260392 173.543467,115.270926 172.672,115.210967 C170.536907,115.064108 167.828267,114.113879 161.728,111.371162 C153.52,107.680646 150.906411,106.751282 148.737067,106.751282 C146.620619,106.751282 143.074965,109.202308 139.711712,112.990256 C134.121963,119.285746 126.309568,131.362821 121.118059,141.734103 C116.055648,151.847521 113.522923,162.719744 112.468651,178.864103 C112.034133,185.519954 112.217344,201.551282 112.883509,215.123077 C113.173728,221.037949 113.544405,233.566133 113.432533,233.677949 C113.3312,233.779231 104.9408,233.779231 104.839467,233.677949 C104.816971,233.655464 104.887904,232.462564 104.99856,231.004103 C105.559136,223.610513 105.55184,211.525944 104.982955,204.691026 C103.414517,185.852564 98.224832,174.535915 89.9232,171.852144 C86.8554347,170.86039 82.9312,171.156944 77.216,172.8125 C68.0757333,175.460215 59.390656,181.202097 52.9874027,188.830256 C48.8365867,193.775251 46.6516373,198.674872 44.2883413,208.337179 C41.607872,219.295897 41.0379733,221.479741 40.1336747,224.258718 C39.052448,227.580769 37.728224,230.543674 36.4487893,232.503077 L35.6288,233.758974 L26.9749333,233.758974 L27.278528,232.786667 C28.448928,229.039231 29.5668373,224.029415 29.9997333,220.592308 C30.6077333,215.762774 30.6107733,206.352051 30.006016,200.214359 C29.1300907,191.321795 26.673568,182.551174 22.999424,175.197692 C20.847712,170.890977 19.1625387,168.715641 12.6587627,161.848718 C8.34216533,157.291026 6.34549333,154.91029 5.18299733,152.935897 C4.38388267,151.578718 3.60645333,149.878192 3.72906667,149.755641 C3.77365333,149.711077 4.35733333,149.95071 5.02613333,150.287979 C12.5185173,154.068028 21.8272,156.747141 31.5146667,157.911479 C35.191648,158.353474 43.3301333,158.512892 47.5253333,158.225251 C60.1312,157.360708 72.2101333,153.975456 84.816,147.773956 C97.2394667,141.662192 107.808533,134.131264 120.0192,122.690038 C125.389867,117.657941 132.213248,110.279949 134.104331,107.460256 C136.151061,104.408426 136.710219,102.720256 137.116363,98.3651282 C137.490283,94.354359 138.089163,92.4125795 139.95248,89.1687179 C140.685525,87.8925641 141.229077,86.8096564 141.167467,86.7480769 C141.106059,86.6867 140.164267,86.7496974 139.069867,86.8884538 C122.917333,88.9367821 108.685269,82.9583051 98.881472,70.0061538 C95.186656,65.1247641 91.7305813,58.115641 89.6822293,51.35 C88.5598613,47.6430769 85.8540587,36.7404692 85.2079573,33.3217949 C84.7213547,30.7480154 84.6319787,29.7566667 84.6234667,26.8397436 C84.6137387,23.5379487 84.635424,23.3493615 85.1477653,22.2617949 C85.7490773,20.985641 86.6085867,20.2564103 87.5114667,20.2564103 C89.5932587,20.2564103 91.3272747,25.0774359 93.0126507,35.55 C93.3549547,37.6769231 93.82352,39.9152564 94.060032,40.5533333 C94.548256,41.87 95.606176,43.2055051 96.5504,43.6975333 C97.3776853,44.1285897 99.3674667,44.1026615 100.421333,43.6470949 C102.618443,42.6974744 105.804768,39.7025641 107.893856,36.6235897 C108.612715,35.5641795 109.479115,33.8484615 110.236075,31.9848718 C112.976533,25.2394872 115.142432,22.0681436 117.242667,21.7258103 C117.8304,21.6299974 118.033067,21.7148718 118.6208,22.3023077 C119.090581,22.7718513 119.358304,23.2746154 119.461867,23.8823077 C119.604139,24.7166692 119.522667,24.9558974 118.185067,27.6297436 C117.397707,29.2038692 115.556075,32.5317949 114.082688,35.0435897 C108.343168,44.8274359 106.276373,49.7683795 105.575147,55.3810256 C104.626059,62.9771795 107.868523,69.9605769 114.344533,74.2681026 C121.915957,79.3042513 133.8816,81.1481923 143.812267,78.8089821 C154.168533,76.3695026 166.380821,68.9832051 173.505163,60.8502564 C179.455253,54.0576744 182.220437,47.4202564 181.935893,40.6141026 C181.820373,37.8503179 181.599061,36.9882051 178.556629,27.4474359 C174.306101,14.1187179 172.061771,5.07342051 172.5352,3.18025641 C172.706453,2.49558974 172.976,2.61246923 174.5568,4.05654872 L174.5568,4.05654872 Z" id="path-1"></path>
        <path id="path-3" d="M59.2597333,0.197702564 C56.7067413,0.569407692 54.6754133,2.32948718 53.0354347,5.59076923 C51.5993387,8.44692308 51.4199787,8.60735385 49.6938667,8.58000769 C40.5941333,8.43497179 39.876288,8.34786923 36.5813333,6.98765128 C34.021248,5.93067179 32.9333333,5.67179487 29.6906667,5.34769231 C28.0085333,5.1795641 25.7996693,4.86721026 24.7456,4.64823846 C22.4554667,4.17261795 21.557248,4.15742564 19.6181333,4.56235128 C16.4362667,5.22676154 10.6043307,7.58582308 8.61333333,9.01410256 C5.121792,11.5188077 1.20525867,17.2382051 0.498762667,20.8641026 C0.334805333,21.7047436 0.152810667,23.7405128 0.0912,25.4217949 C-0.003648,28.0073231 0.052288,28.9464103 0.466133333,31.7215385 C0.910176,34.6992308 1.029952,35.135959 1.84325333,36.7451282 C2.77450667,38.5874487 3.26293333,39.1220154 5.49226667,40.7398949 C7.144,41.9386692 8.06613333,42.4023385 9.9104,42.9612128 C11.1486933,43.3363615 11.6938667,43.3910538 13.2544,43.2964564 C15.7877333,43.1431154 17.1314133,42.6924103 18.1717013,41.6471795 C19.61104,40.2008718 19.8264747,38.1833333 18.7101867,36.6033333 C17.9479573,35.5246795 17.3482667,35.3826821 15.1392,35.7576282 C11.9573333,36.2978667 11.1967253,36.090441 9.40373333,34.1928205 C7.50251733,32.1807513 6.64341333,29.5541026 6.63429333,25.725641 C6.62821333,23.1328205 6.827232,22.3604436 7.99175467,20.4589744 C8.368512,19.8437872 8.86930133,18.7371795 9.10986667,17.9876923 C9.350432,17.2382051 9.74907733,16.3311231 9.99997867,15.9620513 C10.660064,14.9905538 12.2005333,13.8894154 14.4906667,12.7520179 C16.7281067,11.6407513 18.6250667,11.0946385 21.4218667,10.7563564 C23.0800853,10.5558179 23.6005333,10.5853923 26.5797333,11.0498718 C28.4037333,11.3342718 30.84992,11.8258949 32.0213333,12.1437179 C33.1968,12.4625538 34.8296853,12.8569462 35.6693333,13.0248718 C36.5002667,13.1909744 37.8141547,13.5681487 38.5674667,13.8570051 C40.3093867,14.5246564 43.5733333,14.8228308 47.2213333,14.6476128 C48.944,14.5647641 49.8387733,14.5941359 49.9269333,14.7365385 C49.9996907,14.8542282 49.7887147,16.2253846 49.4545173,17.8053846 C48.7903787,20.9451282 48.7109333,22.3112205 49.1474773,23.0923077 C49.3655467,23.4828513 49.4026347,24.145641 49.3088,25.9889744 C49.2325973,27.4879487 49.2852907,29.1194 49.450464,30.364359 C49.7729067,32.7951282 49.6095573,34.0467718 48.8609067,34.8815385 C48.3897067,35.4067872 47.9813333,35.5647872 45.8533333,36.0462821 C44.4954667,36.3533692 43.145504,36.7631564 42.8437333,36.959441 C41.876,37.5896179 40.8732053,40.8369231 41.2209813,42.214359 C41.3614293,42.7706 41.3845333,42.7793103 42.4181333,42.6701282 C42.992896,42.609359 43.9786667,42.4148974 44.5866667,42.2425154 C45.7216,41.9204385 48.9650773,41.8157128 49.3696,42.087959 C49.964224,42.4882256 50.051776,43.1258974 49.8424213,45.5364103 C49.7281173,46.8530769 49.541056,48.2594795 49.4304,48.635641 C49.3183253,49.0166641 49.15072,50.6815385 49.0554667,52.3628205 C48.9405547,54.3884615 48.7751787,55.6544872 48.5589333,56.1608974 C48.3816,56.5763564 47.9545813,58.0447436 47.6165333,59.4019231 C47.2784853,60.7591026 46.8534933,62.342141 46.6783893,62.8961538 C46.1919893,64.435641 43.791808,69.6848872 43.1307093,70.654359 C42.00368,72.3078897 40.3712,73.6875538 38.4256,74.6306923 C35.0816,76.2518128 34.2685013,76.4645051 31.5146667,76.4389821 C28.7786667,76.4136615 27.7730347,76.2025897 26.6304,75.4134 C26.19264,75.1111744 25.2522667,74.5462231 24.5226667,74.1471718 C22.8113493,73.2113256 22.584768,72.7407692 22.294752,69.52 C21.8407787,64.4761538 20.9932267,63.2020256 18.0981333,63.2105333 C15.808,63.2170154 14.2681387,64.2551564 13.3362773,66.4207692 C12.6212693,68.0817949 12.485888,69.1563974 12.853728,70.2492308 C13.2904747,71.547059 15.6397867,75.1310256 17.062912,76.6705128 C18.5048853,78.2302564 22.0203413,80.7619026 23.4890667,81.2982923 C25.078784,81.878841 30.5418667,82.002 34.7776,81.5527128 C36.4597333,81.3744564 38.2484693,81.2282051 38.7498667,81.2282051 C39.9403307,81.2282051 41.5872,80.4011359 44.384,78.3987897 C47.3024,76.3095436 47.811904,75.7377051 49.2101013,72.9838462 C49.9196373,71.5861538 50.7347627,70.2996692 51.1733333,69.8856282 C52.2063253,68.9104846 52.7054933,67.8589744 52.9426133,66.1574359 C53.131904,64.7996487 53.46448,63.645641 54.5894827,60.4451282 C55.515872,57.8093641 56.7466667,48.5748718 56.7466667,44.2602564 C56.7466667,42.2548718 56.9845973,41.2288846 57.4965333,41.0261179 C57.6744747,40.9556256 58.3376,40.8474564 58.9658667,40.7862821 L60.1109333,40.6748718 L61.1344,41.7079487 C61.9973547,42.5789744 62.2754133,42.7410256 62.9077333,42.7410256 C63.7972373,42.7410256 64.1255573,42.4371795 66.0587947,39.8241026 C68.4713387,36.5628205 68.5013333,36.5081282 68.5013333,35.3676923 C68.5013333,34.1320513 68.1547733,33.5693282 67.0421333,32.9983 C65.7856,32.3533359 65.2217813,32.4246385 63.9818667,33.3854 C63.16816,34.0159821 62.4821333,34.3370462 61.3066667,34.6376513 C58.5504,35.3425744 57.5609813,35.1495308 56.9529813,33.7876923 C56.6197973,33.041041 56.5806827,32.6128205 56.6787733,30.7897436 C56.8040213,28.4602564 56.4973867,24.911941 56.0045013,22.9910256 C55.7939307,22.1698308 55.7276587,21.2894872 55.8002133,20.2766667 C55.901952,18.8587179 56.8155733,14.4347179 57.1430827,13.774359 C57.2448213,13.5695667 57.8714667,13.3945513 59.0672,13.2375641 C60.5872,13.0378359 60.9998293,12.8948256 61.9552,12.2366949 C63.4549333,11.2034154 64.7663893,9.6566359 65.2886613,8.30512821 C65.883488,6.76564103 65.8905813,4.51353333 65.304672,3.20051282 C64.0659733,0.424169231 62.624,-0.2923 59.2597333,0.197702564 L59.2597333,0.197702564 Z"></path>
        <path d="M28.1706667,0.279335897 C26.0426667,0.599387179 25.600448,0.737333333 24.8266667,1.32274359 C24.491456,1.57615128 22.5365333,2.47897949 20.4693333,3.33461026 C14.5717333,5.77611538 12.6316053,7.00324872 9.12,10.5130769 C7.21493333,12.4171795 4.02171733,16.4354436 2.95467733,18.2712821 C1.47480533,20.8177154 0.232661333,25.5838462 0.0567466667,29.3920513 C-0.0634346667,31.9905436 0.356896,35.894359 1.121152,39.2771795 C1.82602667,42.3966667 4.6208,47.2968949 6.18133333,48.1492846 C7.20500267,48.7085641 10.2549333,49.5232769 12.5450667,49.8494051 C14.6730667,50.152441 17.4609493,49.978641 19.456,49.4183487 C23.4688,48.2914846 27.7428373,43.4052333 27.7598613,39.9253846 C27.764928,38.9125641 27.708384,38.7772513 26.9952,38.0994718 C26.083808,37.2331051 25.0293333,36.8666667 23.4485333,36.8666667 C22.4554667,36.8666667 22.2609067,36.9389821 21.6650667,37.5288487 C20.7465813,38.4385641 20.038464,40.1482051 19.87552,41.8497436 C19.7822933,42.8220513 19.5996907,43.4649897 19.2938667,43.895641 C18.8976533,44.4539077 18.7061333,44.5377692 17.5712,44.6522179 C15.6661333,44.8440462 12.6484267,44.5017128 11.9978667,44.0202179 C11.2342187,43.4548615 10.064224,41.87 9.21424,40.2494872 C8.5728,39.0266077 8.47248,38.6289744 8.31946667,36.7046154 C8.224416,35.5094872 8.008576,33.9918769 7.83813333,33.3217949 C7.12353067,30.5116231 7.21088,28.7235897 8.21914667,25.5230769 C8.640288,24.1861538 9.66557867,22.3023077 13.003904,16.7317949 C13.2675733,16.2916231 14.1056,15.4438923 14.896,14.8175641 C15.6864,14.1912359 16.8620693,13.1907718 17.5509333,12.5583667 C19.1303147,11.1084128 21.0165333,9.87803846 22.6986667,9.20046154 C23.4205653,8.90957949 24.9685333,8.21336667 26.1237333,7.65975897 C28.8372373,6.3595 30.2378667,6.14559231 33.9669333,6.46159231 C37.392,6.75186667 39.440352,7.27711538 41.1818667,8.31201538 C43.0464,9.41983846 45.0337493,11.3071282 45.4836693,12.3969231 C45.681472,12.8759872 46.2854187,14.1794872 46.8261333,15.2935897 C47.4552107,16.59 47.8564907,17.7203077 47.9408,18.4333333 C48.0135573,19.0483179 48.3319467,20.6817949 48.6517547,22.0794872 C49.5266667,25.9043026 49.8203307,28.6628205 50.0722453,35.4284615 C50.3401707,42.6194872 50.3288213,42.7071974 48.72512,45.9010256 C48.0741547,47.1974359 47.490272,48.7077538 47.2918613,49.6079487 C46.968608,51.0749179 46.5687467,51.9982051 45.4846827,53.7807692 C45.2137173,54.2264103 44.8870187,54.955641 44.7589333,55.4012821 C44.6306453,55.8471256 43.988192,57.5687179 43.3301333,59.2297436 C42.6728853,60.8887436 41.7511573,63.6253846 41.2832,65.3066667 C40.494016,68.1425641 40.4324053,68.5499205 40.4382827,70.8974359 C40.4467947,74.4423077 41.3061013,77.4880615 42.6893013,78.8784615 C43.3913387,79.5839923 45.1338667,80.4171385 46.208,80.5607564 C48.0238933,80.8036308 51.4165333,79.7885821 53.6864,78.3232333 C55.398528,77.217841 55.809536,76.6502564 56.33424,74.6651282 C56.5592,73.814359 57.012768,72.6265231 57.3321707,72.0520513 C58.171616,70.5417333 58.7585387,68.4464103 58.9038507,66.4410256 C59.0451093,64.4937769 58.707264,58.4802564 58.2565333,54.9151282 C57.9081493,52.1602564 57.8720747,48.3889179 58.1845867,47.4 C58.3080107,47.0088487 58.4812907,45.374359 58.5706667,43.7538462 C58.7173973,41.0964077 58.819744,40.5330769 59.6448,37.8389744 C60.3085333,35.6715385 60.7801387,34.5278615 61.3776,33.6357692 C61.8279253,32.963459 62.5003733,31.6101282 62.8672,30.6378205 C63.2376747,29.6561949 64.2457387,27.6905128 65.1269333,26.2320513 C66.008128,24.7735897 67.3094507,22.5141897 68.043712,21.1679487 C69.999648,17.5825641 71.5851093,15.3336974 73.7566827,13.0653846 C74.8233173,11.9512821 75.953792,10.7024744 76.2691413,10.2902564 C77.0777813,9.23266923 78.7157333,8.47285128 80.4384,8.35637692 C81.6746667,8.27292051 81.850784,8.31019231 82.4042667,8.7740641 C83.872384,10.004641 84.62448,12.2753846 85.133376,17.0153846 C85.2746347,18.3320513 85.559584,19.7852462 85.7888,20.3576923 C86.128672,21.206841 86.1914987,21.7958974 86.1775147,24.0038462 C86.1369813,30.465641 85.8956053,36.2300077 85.52432,39.6012821 C84.746688,46.6665154 84.4205973,51.4310256 84.1176107,60.1615385 C84.0114133,63.2202564 83.8282027,66.965059 83.7114667,68.4666667 C83.5941227,69.9747564 83.4986667,72.4369231 83.4986667,73.9561538 C83.4986667,78.3923077 84.035936,79.4861538 86.2144,79.4861538 C86.9642667,79.4861538 87.5317333,79.3322051 88.2816,78.9252538 C89.5584,78.2324846 91.1560213,76.7047462 91.5291307,75.8197436 C91.8799467,74.9872051 91.864544,73.1458974 91.4934613,71.6064103 C91.1614933,70.2289744 91.110624,67.5387205 91.3937493,66.3397436 C91.4989333,65.8943051 91.6762667,64.2026923 91.7877333,62.5821795 C91.8996053,60.9566026 92.2629867,58.0042308 92.5984,55.9988462 C92.9439467,53.9326923 93.2894933,50.8804564 93.3989333,48.929359 L93.5914667,45.4958974 L94.6554667,43.4601282 C95.243808,42.3344795 96.6752427,39.8848718 97.8576,37.9807692 C99.492512,35.3474359 100.436736,34.0771564 101.8704,32.5824359 C103.560437,30.8201282 103.7856,30.4921769 104.156075,29.2502564 C104.797109,27.1030769 107.797184,22.9104051 109.784533,21.3848949 C110.44016,20.8815231 111.257515,19.9525641 111.882539,19.0005128 C113.039563,17.2378 113.959467,16.4087051 116.0064,15.2834615 C117.1616,14.6484231 117.620843,14.5056154 118.478933,14.5145282 C120.799467,14.5388359 121.347477,15.6582051 121.587637,20.8641026 C121.717547,23.6797436 121.682891,24.5734564 121.366933,26.5358974 C121.161632,27.8120513 120.840811,29.3691615 120.6576,29.9794872 C120.425952,30.7512564 120.279627,32.3697436 120.181333,35.2461538 C120.046357,39.1961538 119.998933,39.5593513 119.208533,42.6903846 C118.569323,45.2224359 118.403339,46.2064923 118.489067,46.954359 C118.550272,47.4873051 118.459477,48.8787179 118.288427,50.0333333 C117.76656,53.5579487 117.73616,54.3084487 118.054549,55.8064103 C118.450763,57.67 118.440224,59.6954385 118.028405,60.7894872 C117.144171,63.1392308 118.1192,72.9548795 119.464907,75.2525641 C120.026293,76.2108949 122.917333,78.8239718 124.072533,79.4170795 C126.423467,80.6239564 131.789675,80.7643333 134.084267,79.6787923 C134.494059,79.4849385 135.624533,78.7040538 136.577067,77.9567949 C137.5296,77.2095359 139.096619,76.2082615 140.032533,75.7488462 C141.228267,75.1618154 142.160939,74.5077359 143.1232,73.5814103 C143.873067,72.8594718 144.524437,72.2914821 144.552,72.335641 C144.579765,72.3802051 144.873024,72.9635897 145.203776,73.6320513 C145.981003,75.2039487 147.419733,76.6445846 149.709867,78.1437615 C153.44096,80.5864821 157.0464,81.2916077 161.728,80.4945179 C165.963733,79.7733897 167.755509,78.680759 171.321227,74.6448718 L172.753067,73.024359 L174.394667,72.8937051 C178.184533,72.5920872 179.600971,72.3149795 181.569067,71.4901385 C182.6432,71.0398385 183.63728,70.6563846 183.788267,70.6341026 C183.956075,70.6091872 184.270411,71.1810256 184.601568,72.1128205 C185.516,74.6868026 186.8384,76.2218333 189.837867,78.1917692 C193.742645,80.7562308 198.208,81.4315795 203.234133,80.2178154 C206.356213,79.4636692 207.955051,78.4125641 210.847307,75.2120513 L212.8608,72.9838462 L214.603733,72.8612949 C219.184,72.5394205 221.597963,71.8624513 224.5952,70.0592256 C226.621867,68.8397897 226.932149,68.5578205 228.352235,66.6435897 C228.968544,65.8130769 229.980256,64.6698051 230.584,64.1216667 C231.191189,63.5704897 232.194997,62.3391026 232.813333,61.3870513 C233.433899,60.4315564 234.60592,58.7334615 235.427733,57.5991026 C236.249547,56.4647436 237.230656,54.852941 237.616533,54.0035897 C238.003019,53.1528205 238.370048,52.4641026 238.437333,52.4641026 C238.504011,52.4641026 239.1264,52.8619385 239.815467,53.3452564 C240.500885,53.825941 241.68,54.5051385 242.4096,54.8397744 C243.949867,55.5459128 245.120267,56.6053231 245.290304,57.4471795 C245.355563,57.7702692 245.698677,58.3992308 246.052533,58.8448718 C247.536053,60.7133231 248.304971,63.1594872 248.070688,65.2661538 C248.000971,65.8941026 247.868427,66.4947051 247.780267,66.5828205 C247.690283,66.6725564 246.7872,66.8042231 245.7536,66.8779564 C241.6192,67.1730923 239.355819,67.4465538 238.680533,67.7323718 C238.2752,67.9039436 237.383467,68.1830769 236.674133,68.3603205 C235.125152,68.7474205 234.616864,69.1958974 233.8216,70.8771795 C233.298517,71.9833821 233.210763,72.3964103 233.224544,73.6928205 C233.254741,76.5548487 234.708267,78.5571949 237.6672,79.8128897 C238.966091,80.3640667 239.207467,80.3980974 241.8624,80.4059974 C244.699733,80.4145051 246.406187,80.1424615 247.76,79.4658974 C248.092171,79.2999974 249.347285,78.1694872 250.5264,76.974359 C252.145099,75.3335897 252.8368,74.4649949 253.2928,73.5003846 C253.886411,72.2444872 253.926133,72.2078231 254.974933,71.9440846 C257.102933,71.4093154 257.71296,71.3214026 259.352533,71.3120846 C260.632373,71.3047923 261.480533,71.1597564 262.8992,70.705 C263.9328,70.3738077 264.772853,70.1254641 264.784,70.1479487 C264.795349,70.1706359 264.913707,70.6341026 265.052939,71.2012821 C265.510357,73.0648718 266.817963,75.4219077 267.986133,76.4886103 C269.109312,77.5141923 272.242133,79.3603615 273.985067,80.0235564 C276.056725,80.8117333 280.308267,80.9934333 283.024,80.4098462 C283.471488,80.3136282 284.9696,80.0010718 286.368,79.7120128 C288.941867,79.1800795 289.336256,79.0188385 290.340267,78.0880564 C290.653995,77.7969718 291.677867,77.0979231 292.6304,76.524059 C294.859733,75.181059 299.486411,70.7440949 300.250667,69.2161538 C300.808,68.1020513 300.903456,66.9271795 300.527307,65.8130769 C299.811488,63.6934462 298.5432,63.9494872 296.514709,66.6233333 C295.838411,67.5146154 294.906752,68.5446538 294.444267,68.9123077 C293.982187,69.2795564 292.772267,70.3124308 291.758933,71.2049282 C289.266133,73.4001154 288.861205,73.6581821 287.5232,73.9051077 C286.894933,74.0209744 286.099872,74.2573667 285.780267,74.4234692 C283.287467,75.7180564 276.908939,75.1125923 275.018667,73.4017359 C274.030667,72.5076179 273.361056,70.9379487 273.233173,69.2161538 C273.112789,67.595641 273.334101,67.2296077 274.816,66.5972026 C276.234667,65.9917385 276.966091,65.3368487 277.773717,63.9494872 C278.172971,63.2634026 279.414709,61.7516667 280.510933,60.6173077 C281.607157,59.4829487 282.517333,58.4537205 282.517333,58.3485897 C282.517333,58.2436615 283.169109,57.3458974 283.9512,56.3735897 C285.597056,54.3276923 285.80256,53.9754333 286.233024,52.4641026 C286.406912,51.8533718 286.894123,50.114359 287.311008,48.6153846 C288.607061,43.9564103 288.310965,41.1782436 286.327467,39.3829179 C285.872683,38.9713077 285.152,38.4831282 284.685867,38.2710436 C281.9904,37.0445179 276.433888,38.8394385 275.112907,41.3635897 C274.913483,41.7442077 274.3296,42.1604769 273.336533,42.6296154 C271.737696,43.3849769 269.820469,45.0907692 268.339179,47.0758974 C267.436096,48.2858128 265.644117,52.5248718 265.213451,54.4694872 C264.302667,58.5815385 263.872,61.2219615 263.872,62.6935897 L263.872,64.334359 L262.8992,65.0613615 C261.717451,65.944541 261.480533,66.0354923 259.717333,66.2826205 C258.926933,66.3934231 257.957579,66.5289385 257.528533,66.5884923 C255.599552,66.8566872 255.195637,66.1979487 254.966827,62.41 C254.790709,59.4930769 254.612768,58.9599282 253.081013,56.7584615 C252.489024,55.9076923 251.690315,54.6463256 251.323893,53.9833333 C250.17072,51.8969231 249.619467,51.3534436 247.618133,50.3300897 C245.632,49.3144333 242.997333,47.4704923 242.997333,47.0961538 C242.997333,46.8540897 243.590133,45.9820513 245.338133,43.6525641 C245.930933,42.8625641 246.544,41.8758744 246.722549,41.424359 C247.707915,38.9328205 248.107776,35.6804513 247.669003,33.7269231 C247.421952,32.6274051 246.260267,31.6243077 243.848533,30.4279641 L241.9232,29.4730769 L239.774933,29.4730769 C236.714667,29.4730769 235.616821,29.8474154 234.071488,31.4176923 C232.410837,33.1054564 230.929141,36.0969231 230.619872,38.3858974 C230.089291,42.315641 231.188352,45.6984615 233.916853,48.534359 L234.910933,49.5674359 L233.826667,51.0664103 C233.226571,51.8961128 232.172299,53.2844872 231.4656,54.1757692 C230.761536,55.0636077 229.16128,57.3357692 227.898667,59.2398718 C226.636053,61.1439744 225.308384,62.9897385 224.939733,63.3535436 C223.541333,64.7338154 221.579317,66.2678333 220.602667,66.7446692 C219.4272,67.3185333 216.76112,67.9102231 215.758933,67.8198795 L215.069867,67.7576923 L215.440747,66.2384615 C217.067755,59.5741026 217.136661,59.2186026 217.128149,57.5282051 C217.118624,55.6613744 216.892853,54.6923077 215.735424,51.5525641 C215.322997,50.4336 214.760192,48.5748718 214.478283,47.4 C213.807659,44.6046154 213.428875,43.895641 212.232533,43.1963897 C211.703979,42.8874795 210.5808,41.9905256 209.709333,41.1812821 C208.298571,39.8713 207.9664,39.669141 206.4464,39.1961538 C204.836821,38.6952128 204.571733,38.6725256 201.025067,38.7302564 C197.5392,38.7869744 197.229931,38.8236385 196.282667,39.2905487 C194.945675,39.9494897 191.616469,43.2879487 190.821813,44.7666667 C190.458027,45.4430282 189.554133,46.5121615 188.520533,47.4877103 C186.529941,49.3666949 186.147104,50.0333333 185.754539,52.3020513 C185.540928,53.5376923 185.266112,54.3252615 184.750933,55.1784615 C184.359584,55.8266667 183.998432,56.7256462 183.945131,57.1838462 C183.712267,59.1892308 183.413333,62.8090513 183.413333,63.6253846 C183.413333,64.1115385 183.346453,64.6088333 183.266197,64.7192308 C182.967872,65.1300308 181.265067,66.3934231 180.474667,66.7902462 C179.4816,67.288959 177.0496,67.8589744 175.914667,67.8589744 L175.083733,67.8589744 L175.215467,67.099359 C175.288021,66.6804564 175.653632,65.1041026 176.030389,63.5848718 C177.467093,57.7915385 177.448651,56.2087026 175.897237,52.1602564 C175.42624,50.9315026 174.775072,48.8280769 174.445333,47.4708974 C174.115595,46.1137179 173.679253,44.7326359 173.472533,44.3919231 C173.266827,44.0530333 172.5808,43.4449359 171.952533,43.0448718 C171.324875,42.6452128 170.189333,41.7344846 169.439467,41.029359 C168.238261,39.8998615 167.8688,39.6788641 166.4096,39.2164103 C164.878453,38.7310667 164.464,38.6897436 161.140267,38.6897436 L157.5328,38.6897436 L156.235733,39.3324795 C154.651691,40.1172128 151.767136,42.9435897 150.896277,44.5641026 C150.532085,45.2416795 149.527467,46.4335667 148.331733,47.6064128 C146.216299,49.6810744 145.92304,50.2358974 145.613771,52.7476923 C145.523989,53.4769231 145.257077,54.2221564 144.866539,54.8341026 C143.829493,56.4594769 143.833952,56.434359 143.368427,63.3012821 C143.268107,64.78 143.160491,65.2199692 142.798933,65.6307692 C142.553707,65.9092949 142.001845,66.6841026 141.5728,67.3525641 C141.142741,68.0224436 139.769067,69.5817821 138.512533,70.8265385 C136.688533,72.6334103 136.017707,73.1643308 135.1584,73.4815462 C132.9088,74.3118564 130.509835,74.2332615 129.301333,73.2895154 C128.450133,72.6249026 127.289664,70.9223513 127.146379,70.1276923 C127.070784,69.7079795 126.788267,68.9325641 126.504533,68.3653846 C126.004352,67.3657308 125.998272,67.2917949 126.028267,62.6935897 C126.045088,60.1262923 126.140544,55.8064103 126.241067,53.0717949 C126.404821,48.6153846 126.478187,47.9230205 126.960533,46.2858974 C127.380053,44.8616692 127.535296,43.7538462 127.669867,41.2217949 C127.778496,39.1758974 127.961707,37.6522103 128.1664,37.0894872 C128.345963,36.596041 128.630912,35.104359 128.8048,33.7471795 C128.97808,32.3942538 129.359499,30.1617949 129.656,28.7641026 C130.151723,26.4267154 130.193877,25.8269231 130.2032,20.9653846 C130.212928,15.9012821 130.19408,15.6401769 129.712747,14.1794872 C129.078805,12.2551282 127.544821,9.96291282 126.261333,9.02220513 C124.672832,7.85786667 123.728,7.62795641 121.1136,7.76975128 C117.648,7.95773077 114.484981,8.88770256 112.257067,10.3739154 C109.846752,11.9818692 104.930261,17.2787179 103.2536,20.0741026 C102.345856,21.587459 101.635712,22.5453846 100.265077,24.1051282 C99.0014507,25.5433333 97.4182187,27.8383846 96.743744,29.2097436 C95.0301973,32.6938462 94.2653333,33.3621051 93.8221013,31.7620513 C93.5671467,30.8409923 93.6950293,26.7789744 94.031456,25.1179487 C94.3636267,23.4771795 94.2663467,21.9498462 93.7319147,20.4184615 C93.1381013,18.7169231 93.104256,17.9883 93.5491093,16.4684615 C93.8269653,15.5194487 93.839328,15.1112821 93.632608,13.7135897 C93.3032747,11.4853846 92.3547947,8.5844641 91.2551253,6.44153846 C90.1842347,4.35512821 88.2362027,2.38600256 86.3562667,1.48985897 C84.04992,0.39054359 80.9450667,0.656510256 77.0741333,2.28512564 C74.8650667,3.21448974 73.7702613,4.01482051 72.4697493,5.65153846 C71.8621547,6.41581282 70.2108267,8.27474359 68.8256,9.75346154 C66.4949333,12.2413538 66.160128,12.7007692 64.6405333,15.4961538 C63.7265067,17.1774359 62.509088,19.2583769 61.9146667,20.1551282 C61.2910613,21.0960385 60.428512,22.8289744 59.858208,24.2874359 C58.83616,26.9005128 57.885248,28.3296026 57.3141333,28.1108333 C57.1114667,28.0332513 56.962912,27.5791026 56.8682667,26.7485897 C56.7904427,26.065341 56.543392,24.935641 56.3210667,24.2469231 C56.099552,23.5604333 55.8421653,22.3023077 55.7536,21.4717949 C55.6644267,20.6362179 55.404608,19.2233333 55.176,18.3320513 C54.9475947,17.4407692 54.6693333,16.1099231 54.5578667,15.3746154 C54.4008,14.3389051 54.0491733,13.4603846 52.9973333,11.4752564 C51.8348373,9.28148718 51.2795307,8.50769231 49.137344,6.09717949 C46.31136,2.91692308 45.8053013,2.48242308 43.9584,1.64968205 C41.3285973,0.463871795 39.2768,0.126602564 34.352,0.0706948718 C31.4944,0.0384871795 29.2747947,0.113233333 28.1706667,0.279335897 L28.1706667,0.279335897 Z M241.154283,36.1779487 C242.114517,37.3977897 241.912256,38.6897436 240.335712,41.4041026 L239.288533,43.2069231 L238.810443,42.6194872 C237.856693,41.4472487 237.309899,38.71 237.762453,37.3730769 C238.290603,35.8133333 240.307744,35.1025359 241.154283,36.1779487 L241.154283,36.1779487 Z M281.504,43.4601282 C281.616075,43.745541 281.706667,44.3210256 281.706667,44.7464103 C281.706667,46.1295179 280.526741,50.2561538 279.586976,52.1602564 C279.086795,53.1730769 278.368949,54.6584795 277.971317,55.5025641 C276.530965,58.5612821 273.190005,62.0836692 272.120533,61.6712487 C271.446464,61.4111564 271.310677,60.5058974 271.678517,58.7233333 C272.129856,56.535641 272.418656,55.7573897 273.384565,54.1251282 C273.854955,53.3302667 274.323925,52.1805128 274.516459,51.35 C274.910645,49.6498795 275.208971,49.1420513 277.302315,46.61 C278.189792,45.5364103 279.079904,44.3297359 279.289259,43.9158974 C279.692363,43.1200231 279.902933,42.9804564 280.733867,42.9585795 C281.159467,42.9472359 281.352,43.0726231 281.504,43.4601282 L281.504,43.4601282 Z M163.531733,43.7623538 C164.261333,43.8810564 165.192587,44.1693051 165.6192,44.4083308 C166.894379,45.1231795 168.519157,47.9469231 169.415349,51.005641 C170.102592,53.3509282 170.273035,55.5025641 170.076448,59.3512821 C169.899723,62.8151282 169.877632,62.9393 169.1152,64.78 C168.519563,66.2182051 168.260555,66.6350821 168.0208,66.5423077 C167.847317,66.475259 166.754133,65.8586538 165.578667,65.1648718 C163.839179,64.1382769 163.030539,63.4835897 161.1504,61.5794872 C159.030101,59.4323077 158.766027,59.0755923 157.774784,57.0217949 C155.907413,53.1528205 155.425269,50.8978769 155.938421,48.4330769 C156.743616,44.5647103 159.194667,43.0570256 163.531733,43.7623538 L163.531733,43.7623538 Z M204.814933,44.0512103 C206.525237,44.5600513 207.883509,46.4479487 209.220907,50.1751282 C209.845931,51.9171795 210.456363,56.0280154 210.261397,57.1838462 C210.186005,57.6309051 210.102101,59.0474359 210.074133,60.3438462 C210.026507,62.5517949 209.976245,62.809659 209.2432,64.6179487 C208.816181,65.6712821 208.437803,66.5789718 208.407403,66.6233333 C208.328565,66.7385923 205.7472,65.2807385 204.247467,64.2737923 C203.505504,63.7756872 201.974763,62.4201282 200.873067,61.2857692 C199.089195,59.4491205 198.739392,58.9664103 197.840768,57.1028205 C196.375488,54.064359 195.877333,52.3221051 195.877333,50.2358974 C195.877333,46.7720513 197.235808,44.5452641 199.7888,43.8247436 C200.930016,43.5026667 203.335467,43.6110385 204.814933,44.0512103 L204.814933,44.0512103 Z M52.0188587,57.6092308 C52.6945493,63.4835897 52.4902613,67.722041 51.358976,71.3025641 C50.2836267,74.705641 48.3173547,75.3743051 47.129728,72.7407692 C46.7937067,71.9957385 46.7781013,71.7380769 46.9781333,70.2391026 C47.0997333,69.3275641 47.2839573,67.9233897 47.3834667,67.15 C47.4837867,66.3701282 47.8960107,64.8205128 48.2997227,63.7064103 C49.532544,60.3033333 51.5671147,55.3289667 51.68,55.4417949 C51.7357333,55.4972974 51.888544,56.4748718 52.0188587,57.6092308 L52.0188587,57.6092308 Z M191.114667,57.9738462 C191.114667,58.0963974 191.442784,58.8752564 191.844267,59.7057692 C192.467467,60.9948872 193.00656,61.6503846 195.542933,64.2026923 C197.173387,65.8434615 198.932331,67.4279179 199.444267,67.7171795 C199.957419,68.0070487 201.3696,68.9131179 202.5856,69.7326923 C203.8016,70.5522667 204.976864,71.3262641 205.2,71.4544872 C205.585472,71.6760923 205.565813,71.7279487 204.794667,72.5179487 C204.346976,72.9767564 203.507733,73.6747923 202.92,74.0776923 C201.864512,74.8010487 201.835733,74.8077333 199.342933,74.9082051 C197.0528,75.0005744 196.747179,74.9693795 195.8976,74.5573641 C194.762059,74.0065923 193.398315,72.5179487 192.284864,70.6138462 C190.786955,68.0526256 190.697984,67.7779487 190.480523,65.0433333 C190.229216,61.8833333 190.504437,57.3734462 190.932267,57.6381974 C191.031776,57.6997769 191.114667,57.8523077 191.114667,57.9738462 L191.114667,57.9738462 Z M151.736533,59.5335897 C152.505653,61.1439744 152.867616,61.5997436 155.485867,64.2533333 C157.084907,65.8738462 158.701984,67.3539821 159.093333,67.5551282 C159.483467,67.7556667 160.714667,68.5304744 161.829333,69.2769231 C162.944,70.0233718 164.252821,70.8848769 164.7376,71.1911538 L165.6192,71.7482051 L164.5248,72.7492769 C162.49712,74.6037513 161.9712,74.8170513 159.194667,74.9088128 C156.823467,74.9872051 156.734699,74.9744436 155.648,74.4017949 C154.931371,74.0242154 154.208661,73.4092308 153.624373,72.68 C152.260832,70.9784615 150.814603,68.3131231 150.579712,67.0689744 C150.216533,65.1446154 150.363061,57.720641 150.763733,57.7439359 C150.830005,57.7477846 151.272224,58.5612821 151.736533,59.5335897 L151.736533,59.5335897 Z M247.429856,71.6671795 C247.849781,72.4456333 246.280533,74.3973385 244.5376,75.2645154 C242.267733,76.3940128 238.944,75.544459 238.944,73.8346154 C238.944,72.9305718 239.389867,72.4229462 240.605867,71.9430718 C242.092021,71.3564462 242.186667,71.3426718 244.861867,71.3214026 C246.9696,71.3045897 247.254955,71.3430769 247.429856,71.6671795 L247.429856,71.6671795 Z" id="path-5"></path>
        <path d="M11.552,0.623289744 C9.58613333,1.5139641 7.619456,3.42941026 7.20094933,4.86153846 C7.11968,5.13925385 6.293408,6.96820513 5.37086933,8.91282051 C3.38129067,13.1058974 1.43346133,18.5392744 1.195328,20.5602564 C0.850186667,23.4885231 0.514165333,32.5520513 0.500586667,39.2974359 C0.492682667,43.1461538 0.384661333,47.4962179 0.259818667,48.98 C0.004256,52.0184615 0.162336,54.4887308 0.799925333,57.4269231 C1.01981867,58.4397436 1.25531733,60.0602564 1.32989867,61.0730769 C1.499328,63.3723821 1.960192,64.5571795 3.69400533,67.15 C5.95637333,70.5328205 7.29397333,71.9971564 8.7552,72.6901282 C11.4101333,73.9490641 15.338624,74.9487179 17.632,74.9487179 C19.3759467,74.9487179 20.7733333,74.6011179 22.6784,73.6936308 C24.2046827,72.9664256 24.6848,72.5807436 27.3194667,69.965641 C28.9408,68.3562692 30.3035307,67.0940923 30.3594667,67.15 C30.4154027,67.2057051 30.7491947,68.1425641 31.1030507,69.2364103 C32.315808,72.9838462 32.7890347,73.4436667 35.9530667,73.9488615 C37.8021973,74.2439974 40.2090667,73.9920077 42.864,73.2248974 C46.6674453,72.1261897 48.4438187,70.8366667 52.907552,65.9346154 C57.5370667,60.8502564 57.5370667,60.8502564 57.733248,61.1541026 C58.2879467,62.0129744 58.1221653,65.7117949 57.2417813,72.1128205 C57.080256,73.2876923 56.9493333,74.6114487 56.9493333,75.0702564 C56.9493333,76.4274359 56.3699093,77.7698282 55.3482667,78.7796103 C54.456128,79.6611692 50.3829333,82.3419026 48.0725333,83.5676179 C47.0565653,84.106641 46.3146027,84.8135897 44.8300693,86.6569231 C44.3521813,87.2502333 43.9178667,87.5532692 43.3098667,87.7179538 C41.4951893,88.2091718 40.9234667,88.6015385 38.629888,90.9310256 C34.6408,94.9823077 33.307456,96.7668974 31.6218773,100.309744 C30.1861867,103.327949 29.7405227,104.775067 29.632096,106.771538 C29.5210347,108.817436 29.7626133,109.735862 30.687584,110.782308 C31.045696,111.187436 31.882304,112.240769 32.5701547,113.152308 C34.694304,115.967949 37.2173013,117.942341 39.0336,118.210131 C40.1196907,118.370156 42.6410667,117.982449 44.6677333,117.343764 C46.0053333,116.922026 46.4388373,116.669023 47.3024,115.805897 C47.8686507,115.239933 49.3898667,113.884172 50.6666667,112.807544 C53.4837333,110.432277 54.1346987,109.756928 55.6263253,107.662821 C56.894816,105.882079 57.7178453,104.361026 58.4545387,102.436667 C58.716384,101.753013 59.25872,100.451538 59.6448,99.5805128 C60.145184,98.4516231 60.5152533,97.1092308 60.9013333,95.0228205 C61.2014827,93.4010923 61.764288,90.6474359 62.1477333,88.925641 C62.5311787,87.2038462 62.9888,85.0082538 63.1610667,84.0641026 C63.334752,83.1120513 63.6111893,82.0479821 63.7792,81.6839744 C63.9528853,81.3078128 64.9648,80.3006641 66.1402667,79.3342308 C67.2693227,78.4058795 69.8571733,75.9615385 71.8769493,73.915641 C75.4165227,70.3302564 80.4550187,65.4282051 80.6005333,65.4282051 C80.6339733,65.4282051 80.6613333,65.7928205 80.6613333,66.2384615 C80.6613333,68.3512051 83.8837333,72.4105897 86.5792,73.6932256 C89.2746667,74.9760641 95.5743573,75.3623538 97.4826667,74.3618897 C100.1984,72.9382692 103.43904,70.235659 104.600523,68.4261538 C104.938571,67.8994872 105.270944,67.4538462 105.325867,67.4538462 C105.381803,67.4538462 105.364373,68.2235897 105.286955,69.175641 C105.128469,71.1202564 105.360523,72.1249744 106.075733,72.5916821 C106.848704,73.0962692 108.6496,73.5307692 109.966933,73.5307692 C111.650283,73.5307692 112.279968,73.0041026 113.358155,70.6948718 C114.019253,69.2791513 114.191925,68.6489744 114.329333,67.15 C114.611648,64.0710256 114.581451,64.1380744 116.594133,62.1264103 C118.076437,60.6448564 118.749493,59.7665385 119.877333,57.8421795 C120.660843,56.5052564 121.57264,55.0542897 121.914133,54.6011538 C122.256032,54.1476128 123.066293,53.0110256 123.726784,52.0589744 C125.413173,49.6282051 127.263317,47.4844692 128.794667,46.1868436 C129.524267,45.5686179 130.496256,44.5327051 130.973333,43.8652564 C131.451019,43.1967949 132.192981,42.2629744 132.639456,41.7687179 C133.974421,40.29 135.485099,39.8990513 136.496,40.7704821 C136.980373,41.1879667 137.041376,41.3838462 137.027797,42.4776923 C137.0128,43.6843667 136.419392,46.7720513 135.559883,50.114359 C135.326816,51.0216436 135.056661,52.5248718 134.955733,53.4769231 C134.855819,54.4194538 134.63552,56.0697436 134.468725,57.1230769 C133.973408,60.2510718 134.065216,63.0582051 134.773536,66.4410256 C135.592107,70.3505128 136.00048,71.0124923 138.765867,72.9103154 C140.656544,74.2077385 142.677333,74.7911231 145.656533,74.8992923 C147.9872,74.9839641 148.196555,74.958441 149.304533,74.4522333 C150.9056,73.7205718 151.9088,73.0002538 152.393173,72.234359 C152.612256,71.8879744 153.449067,71.1068872 154.259733,70.4923077 C155.0704,69.8775256 156.096907,68.9060282 156.549867,68.3248718 C157.007691,67.7374359 157.424373,67.2670821 157.492267,67.2614103 C157.559755,67.2557385 157.669195,67.6564103 157.738304,68.1628205 C157.915029,69.4592308 158.797845,71.1401077 159.87664,72.234359 C161.449536,73.8297538 163.146667,74.3475077 165.477333,73.9429872 C167.341867,73.6194923 168.930976,72.9889103 169.773867,72.2382077 C170.160757,71.8936462 171.141867,71.2841308 171.932267,70.8974359 C173.126581,70.3130385 173.630613,69.8947436 174.8,68.5173077 C175.573781,67.6057692 176.817344,66.3286026 177.536,65.707541 C178.886571,64.5403667 180.698005,62.2479487 182.494443,59.4323077 C183.618837,57.67 184.093888,57.388841 184.445515,58.2776923 C184.615147,58.7065205 184.588192,59.4728205 184.335467,61.4174359 C184.068555,63.4704231 184.028427,64.8205128 184.136853,68.1020513 C184.294123,72.8623077 184.086389,74.8170513 183.295584,76.0223077 C182.696501,76.9352641 180.657067,78.3054077 178.184533,79.4557692 C176.887467,80.0592077 176.046197,80.6348949 175.002667,81.6333333 C174.2224,82.3797821 172.8544,83.4748436 171.962667,84.0667359 C169.024,86.0174282 168.100043,86.8404462 167.417461,88.1153846 C166.549643,89.7358974 165.934752,90.4199564 164.909867,90.9040846 C164.433195,91.1293359 163.492416,91.9033333 162.833547,92.6123077 C161.291051,94.2721179 158.730763,98.1017949 157.620149,100.411026 C156.823872,102.066177 156.7576,102.335385 156.691733,104.178718 C156.625259,106.039269 156.667819,106.295513 157.370667,108.260385 C157.783701,109.415 158.320768,110.547941 158.5664,110.782308 C158.808789,111.013636 159.5392,111.346246 160.167467,111.511538 C160.809312,111.680274 162.052267,112.182228 162.964267,112.640631 C166.538293,114.437374 170.138667,114.483154 174.637867,112.788503 C178.123733,111.475685 182.030741,108.562813 183.794752,105.961282 C184.772619,104.519431 186.566827,100.937692 187.559285,98.4461538 C188.214101,96.8027513 188.342795,96.2078205 188.500267,94.1011538 C188.600181,92.7642308 188.861013,90.7898385 189.077056,89.7358974 C189.641483,86.9810256 190.251712,82.9236667 190.508491,80.2153846 C190.629685,78.9392308 190.775403,77.657 190.830933,77.3794872 C190.888693,77.0908333 191.864533,75.9542462 193.1008,74.7360256 C194.296533,73.5577103 195.619339,72.2173436 196.0496,71.7482051 C196.480064,71.2788641 197.620267,70.3750231 198.593067,69.7318821 C200.437333,68.5128513 205.531968,63.7262615 206.041067,62.7341026 C206.482272,61.8746231 206.029312,60.2830769 205.032192,59.1892308 C204.539915,58.6489923 203.578667,58.5977436 202.869333,59.0739718 C202.024213,59.6411513 200.468544,61.1946154 199.305643,62.6328205 C198.705749,63.3746103 197.4176,64.6560308 196.465067,65.4585897 C195.512533,66.2611487 194.124672,67.6942897 193.4048,68.6185897 C192.395115,69.915 191.985728,70.2958205 191.651733,70.2492308 C191.232416,70.1906897 191.209109,70.0466667 191.0336,66.4410256 C190.933077,64.3748718 190.84208,61.103259 190.830933,59.1487179 C190.812491,55.9279487 190.85424,55.4742051 191.286933,54.1858974 C191.682133,53.009 191.755093,52.4235897 191.715776,50.7423077 C191.622347,46.7517949 191.630453,46.6920385 192.530293,44.8071795 C193.642123,42.4776923 194.643499,40.8545462 195.703851,39.6620513 C196.524651,38.7391692 196.586261,38.5884615 196.580789,37.5148718 C196.572885,35.9753846 195.871456,34.2742513 195.0464,33.7935667 C194.093664,33.2387436 193.141333,33.4988359 191.4592,34.7729641 C189.858133,35.9857154 189.089216,36.1532359 188.730496,35.3676923 C188.438859,34.7290077 187.4464,33.9860026 185.946667,33.2835103 C184.808491,32.7505641 184.568533,32.7155205 182.197333,32.7367897 C177.5968,32.7779103 175.031648,33.3653462 173.502933,34.7277923 C172.566005,35.5627615 172.327467,35.6861231 170.341333,36.360459 C169.509792,36.6428333 168.912533,37.13 167.013344,39.0746154 C163.570848,42.5992308 162.295061,44.7261538 160.804853,49.425641 C160.400128,50.7017949 159.708629,52.7169026 159.275733,53.8820513 C158.839189,55.0569231 158.340224,56.5893205 158.161067,57.3053846 C157.978667,58.0346154 157.508683,59.0980769 157.086933,59.7361538 C156.671872,60.3641026 156.069344,61.2954923 155.737376,61.8225641 C154.308576,64.0912821 152.723723,66.2733026 152.222933,66.6610103 C151.932309,66.886059 151.3008,67.3594513 150.8144,67.7171795 C150.328,68.0747051 149.646635,68.5786846 149.2944,68.8414103 C148.719029,69.270441 148.493867,69.3093333 147.0144,69.2364103 C145.717333,69.1724 145.121899,69.0299974 144.177067,68.5578205 C143.120768,68.0299385 142.9104,67.8184615 142.373333,66.7448718 L141.765333,65.5294872 L141.765333,56.0089744 L142.9104,51.6538462 C143.538869,49.2635897 144.206251,46.4763077 144.389867,45.475641 C144.575712,44.4628205 144.864917,43.1664103 145.040832,42.5587179 C145.914123,39.5405128 144.32096,36.0357487 141.501867,34.7735718 C139.130667,33.7117308 136.791285,33.3637256 135.361067,33.8600077 C133.569493,34.4814744 131.381707,36.1576923 128.290027,39.2771795 C123.331381,44.2805128 121.81584,45.9694923 120.637739,47.8051282 C120.026699,48.7571795 118.966549,50.1155744 118.266133,50.8435897 C117.564501,51.5728205 116.761131,52.6302051 116.465237,53.2135897 C115.828459,54.4694872 115.216811,54.766041 114.668597,54.0846154 C114.133152,53.4189897 114.018645,52.3830769 114.267925,50.4587179 C115.199584,43.2676923 115.217621,42.8880872 114.744597,40.4520513 C114.480928,39.0948718 114.352843,37.8904256 114.4256,37.4541026 C114.620363,36.2863205 114.202667,35.4067872 112.824533,34.0826256 C111.770667,33.0700077 111.383168,32.8311846 110.605333,32.7141026 C110.037867,32.6286205 109.380821,32.6648795 108.9536,32.8048513 C107.469067,33.2914103 107.063936,34.8207692 106.777568,41.0192308 C106.658603,43.5917949 106.607531,47.4107359 106.663467,49.5471795 C106.738251,52.4033333 106.693259,53.7554487 106.4912,54.7125641 C106.338795,55.4349077 106.213141,56.6369231 106.207467,57.4269231 C106.197739,58.7841026 106.171595,58.8592538 105.599467,59.1791026 C105.273984,59.3610051 104.521888,60.2425641 103.948747,61.1135897 C102.616011,63.1392308 99.2503253,67.3082026 98.3541333,68.0435103 C97.487936,68.7541051 96.4490667,69.074359 95.0101333,69.074359 C93.2266667,69.074359 91.8868373,68.5657205 90.7946667,67.4741026 C89.219744,65.8999769 87.7546667,62.8151282 87.7546667,61.0730769 C87.7546667,60.7254769 87.5692267,59.7260256 87.3392,58.8347436 C87.0360107,57.6598718 86.9510933,56.8682513 87.0250667,55.9076923 C87.0810027,55.1800821 87.2149653,52.8692308 87.3242027,50.7423077 C87.5886827,45.5971795 88.4273173,42.490859 90.2719893,39.8241026 C91.0173973,38.7464615 91.097856,38.5074359 91.091168,37.3933333 C91.082048,35.8538462 90.562208,34.7909923 89.2544,33.6375923 C88.1857387,32.6950615 87.0250667,32.3079615 85.8496,32.5016128 C84.172736,32.7777077 83.817664,33.2812821 82.8856,36.7046154 C82.5416747,37.9682103 81.7993067,40.1279487 81.2288,41.525641 L80.1952,44.0576923 L80.0432,47.6025641 C79.959904,49.5471795 79.7813547,52.2905051 79.648,53.6794872 C79.5138347,55.0771795 79.4501973,56.7696026 79.5061333,57.4573077 C79.5983467,58.5916667 79.5657173,58.7217128 79.1413333,58.9113128 C78.7218133,59.0984821 77.9828907,59.8982051 73.773504,64.7192308 C71.9869973,66.7651282 66.8597333,71.6187667 66.2922667,71.8010744 C66.0288,71.8857462 65.7292587,71.8539436 65.6032,71.7279487 C65.2750827,71.3999974 65.4053973,64.5369231 65.7979627,61.4782051 C65.9700267,60.1370282 66.173504,56.4141026 66.2517333,53.1730769 L66.3936,47.2987179 L67.157856,44.8679487 C68.3612907,41.0394872 68.3985813,37.0830051 67.2504747,35.0233333 C66.2679467,33.2610256 63.7465707,32.6306462 62.1173333,33.7398872 C60.4295253,34.8892359 60.0937067,35.8741026 58.903648,43.1664103 C58.4575787,45.9010256 57.7103467,48.1144436 56.7156587,49.6484615 C56.250944,50.3653359 55.6170027,51.7146154 55.2976,52.6666667 C54.9798187,53.6136538 54.18192,55.4823077 53.5242667,56.8192308 C52.491072,58.9194154 52.0233173,59.594359 50.0850133,61.7820513 C47.6619307,64.5166667 46.187328,65.7591949 44.2826667,66.6715436 C42.6410667,67.4576949 41.5967253,67.4499974 40.6752,66.6448051 C39.90304,65.9700641 38.6702187,63.7671795 38.2938667,62.3897436 C37.9979733,61.3068359 38.0107413,57.2041026 38.315552,55.4215385 C38.4318827,54.7415308 38.649952,52.8287179 38.8005333,51.1676923 C39.0741333,48.1494872 39.0741333,48.1494872 39.890272,46.9948718 C41.18896,45.1578179 41.6032107,43.8348718 42.2495147,39.4594872 C42.6443093,36.785641 42.488864,36.0055667 41.305088,34.7194872 C40.3728213,33.7066667 37.5900053,32.2076923 36.6421333,32.2076923 C35.344256,32.2076923 35.17584,32.5317949 33.7502827,37.7782051 C33.3538667,39.2366667 32.8492267,40.8995154 32.6192,41.5053846 C32.3883627,42.1130769 32.0316693,43.3284615 31.81664,44.24 C31.3663147,46.1487615 30.267456,54.1251282 30.069856,56.9205128 C29.9711573,58.3182051 29.8367893,58.9556744 29.5792,59.25 C29.3811947,59.4760615 29.032,60.04 28.7888,60.5261538 C28.5458027,61.0119026 27.9317227,61.8630769 27.4005333,62.4505128 C26.8713707,63.0357205 25.929984,64.1520513 25.2826667,64.9623077 C24.570496,65.8535897 23.743008,66.6334615 23.1546667,66.9676923 C22.6178027,67.2727538 21.7258667,67.8239308 21.1381333,68.2138667 C20.0279253,68.9507949 19.2128,69.0690923 17.3888,68.7589667 C16.2923733,68.5724051 13.5989333,67.4167769 12.4842667,66.6547308 C10.900832,65.5722282 9.80622933,63.8482051 8.61921067,60.5666667 C7.68126933,57.9738462 7.81806933,56.5510359 9.242208,54.0846154 C9.715232,53.2654462 9.75738667,53.0312821 9.65909333,51.7753846 C9.5304,50.1346154 9.74279467,49.5097051 10.946432,47.9874359 C11.4107413,47.4 12.006176,46.4919051 12.2613333,45.9820513 C12.7130773,45.0790205 14.0348693,41.1812821 14.68624,38.8315385 C14.8678293,38.1768513 15.5157547,36.5830769 16.119296,35.3069231 C17.776704,31.8025641 18.233312,30.1682769 18.456448,26.9410256 C18.5794667,25.1584615 18.8222613,23.5717769 19.153824,22.3833333 C19.735072,20.2993538 19.983136,17.9066667 20.1726293,12.5589744 C20.3183467,8.44692308 20.1772907,7.15699487 19.3335893,4.88179487 C17.9437013,1.13435897 14.537888,-0.729635897 11.552,0.623289744 L11.552,0.623289744 Z M14.1953813,9.01410256 C14.48256,9.36352564 14.3637973,10.7561538 13.9673813,11.6879487 C13.738368,12.2261615 13.7531627,12.5387179 14.0707413,13.875641 C14.5520747,15.9014846 14.4106133,17.8661538 13.5926507,20.5197436 C12.7185493,23.355641 12.3626667,25.4890462 12.3626667,27.8930769 C12.3626667,29.7161538 12.2903147,30.1688846 11.8256,31.255641 C11.393312,32.2664359 11.2569173,33.0078205 11.1264,35.0537179 C10.9744,37.4370872 10.899616,37.7579487 9.93127467,40.1887179 C8.744864,43.1664103 8.17010133,44.3615385 7.92426667,44.3615385 C7.43239467,44.3615385 6.95693867,39.0138462 7.270464,37.0084615 C7.39652267,36.2034718 7.48954667,34.415641 7.4784,33.0179487 C7.46603733,31.4784615 7.58520533,29.7712513 7.7824,28.6628205 C7.96176,27.654659 8.24427733,25.3002564 8.41472,23.3961538 C8.73169067,19.8512821 8.816608,19.3904487 9.64247467,16.7317949 C9.914656,15.8559077 10.276416,14.3212821 10.4541547,13.2882051 C10.8378027,11.06 11.058912,10.6676333 12.5450667,9.57621795 C13.8624,8.60897436 13.8624,8.60897436 14.1953813,9.01410256 L14.1953813,9.01410256 Z M181.771733,37.5333051 C182.693461,38.0028487 183.059477,38.7505128 183.210464,40.4723077 C183.336523,41.9105128 183.459744,42.2716846 184.305067,43.6829487 C185.117963,45.0401282 185.243616,45.388741 185.162752,46.0630769 C185.041355,47.0744795 184.1632,48.3334154 183.0688,49.0646718 C182.230165,49.6251667 179.897877,52.7882051 177.948427,56.0089744 C177.465067,56.8076846 176.32,58.1790436 175.326933,59.1487179 C173.989333,60.4548513 173.348501,61.2762487 172.672,62.5517949 C172.027317,63.7671795 171.398443,64.5940462 170.402133,65.5355641 C167.874475,67.9242 166.121611,67.7982051 165.24832,65.1648718 C164.784821,63.7665718 164.959723,59.4525641 165.562251,57.4269231 C165.79552,56.6427974 166.128299,55.2392308 166.306645,54.2871795 C166.742987,51.9576923 167.563381,49.9038949 168.976981,47.6025641 C169.623893,46.5492308 170.372341,45.1464744 170.630539,44.5033333 C171.394187,42.6006487 172.064,41.8659487 174.4352,40.3301077 C175.630933,39.5557051 177.028523,38.6194538 177.515733,38.2663846 C178.8128,37.3264872 180.720704,36.9979282 181.771733,37.5333051 L181.771733,37.5333051 Z M183.899733,85.7352564 C183.74368,87.9837179 183.462581,90.2564872 183.210667,91.3057692 C182.977195,92.2780769 182.656981,93.7411974 182.501333,94.5467949 C182.344875,95.3570513 182.002773,96.4421872 181.738091,96.9674359 C180.463115,99.4994872 178.388416,102.854151 177.637333,103.598169 C175.570133,105.646295 173.712288,107.064244 172.064,107.852218 C170.523733,108.588538 170.178187,108.675641 168.801067,108.675641 C167.404085,108.675641 167.098667,108.595628 165.517867,107.814744 C164.565333,107.344187 163.589088,106.715023 163.365141,106.427179 C162.756939,105.645687 162.831925,104.502821 163.616448,102.598718 C164.409077,100.674359 165.014037,99.6862513 166.431285,98.0005128 C167.027125,97.2915385 167.853803,96.2292923 168.291157,95.6102564 C169.865269,93.3820513 171.761013,91.2824744 172.7936,90.6237359 C173.381333,90.2487897 174.262731,89.5165205 174.740213,89.0066667 C175.992288,87.6697436 183.973909,81.6311051 184.138069,81.8966667 C184.151851,81.9189487 184.044437,83.6488462 183.899733,85.7352564 L183.899733,85.7352564 Z M54.4575467,88.2571795 C54.3248,90.4236026 53.533184,94.9620513 52.8676267,97.3725641 C52.3139413,99.3779487 51.8579413,100.419128 50.907232,101.849231 C50.487104,102.481231 49.6598187,103.874872 49.0793813,104.928205 C47.19296,108.351538 46.044448,109.587179 44.7488,109.587179 C43.8973973,109.587179 43.2896,109.895077 42.1749333,110.89149 C41.6074667,111.39871 40.9127253,111.87109 40.6346667,111.938949 C39.8310933,112.135233 38.8309333,111.860354 37.7770667,111.154013 C36.4358187,110.255236 35.9688747,109.384615 36.0128533,107.865385 C36.0517653,106.517523 36.968224,103.307692 37.759232,101.747949 C38.355072,100.573077 40.371808,97.836841 41.4469547,96.7446154 C42.6355947,95.5371308 45.088672,92.6933333 46.0077653,91.4576923 C46.7458773,90.4651282 46.9136853,90.3435897 47.5456,90.3435897 C49.329472,90.3435897 50.0673813,89.9587179 51.8956373,88.0748718 C53.094816,86.8392308 53.7717227,86.2923077 54.1018667,86.2923077 C54.5781333,86.2923077 54.5781333,86.2923077 54.4575467,88.2571795 L54.4575467,88.2571795 Z" id="path-7"></path>
        <path id="path-9" d="M4.3168,0.388517949 C3.30103467,0.849958974 1.986944,2.53205128 0.869642667,4.80076923 L0.1216,6.32 L0.476266667,7.66705128 C0.673664,8.41653846 1.077376,9.41842051 1.38664533,9.92564103 C2.44861867,11.6676923 5.138208,12.0513487 6.82986667,10.7018667 C7.258912,10.3597359 8.22826667,9.78708718 9.01866667,9.40910256 C10.2549333,8.81781795 10.5271147,8.58345128 11.1365333,7.58602564 C11.651712,6.74275128 11.8570133,6.13769231 11.9168,5.28692308 C11.9907733,4.23358974 11.936864,4.05229487 11.30272,3.22076923 C10.391328,2.02564103 8.48362667,0.517753846 7.51893333,0.230112821 C6.384,-0.108371795 5.291424,-0.0542871795 4.3168,0.388517949 L4.3168,0.388517949 Z"></path>
    </defs>
    <g id="Page-1" stroke="none" stroke-width="1" fill="none" fill-rule="evenodd" sketch:type="MSPage">
        <g id="vector-logo-white-moose" sketch:type="MSLayerGroup">
            <g id="flying-moose-logo-white" transform="translate(201.450667, 0.000000)">
                <mask id="mask-2" sketch:name="Clip 2" fill="white">
                    <use xlink:href="#path-1"></use>
                </mask>
                <g id="Clip-2"></g>
                <path d="M0.0648424479,-0.0121538462 L204.693322,-0.0121538462 L204.693322,236.526 L0.0648424479,236.526 L0.0648424479,-0.0121538462 Z" id="Fill-1" fill="#FFFFFF" sketch:type="MSShapeGroup" mask="url(#mask-2)"></path>
            </g>
            <g id="Group-6" transform="translate(0.000000, 270.220513)">
                <mask id="mask-4" sketch:name="Clip 5" fill="white">
                    <use xlink:href="#path-3"></use>
                </mask>
                <g id="Clip-5"></g>
                <path d="M0.04864,0.0445641026 L68.50944,0.0445641026 L68.50944,81.8399487 L0.04864,81.8399487 L0.04864,0.0445641026 Z" id="Fill-4" fill="#E77B23" sketch:type="MSShapeGroup" mask="url(#mask-4)"></path>
            </g>
            <g id="Group-9" transform="translate(307.242667, 270.625641)">
                <mask id="mask-6" sketch:name="Clip 8" fill="white">
                    <use xlink:href="#path-5"></use>
                </mask>
                <g id="Clip-8"></g>
                <path d="M0.0162133333,0.0526666667 L300.757333,0.0526666667 L300.757333,80.8271282 L0.0162133333,80.8271282 L0.0162133333,0.0526666667 Z" id="Fill-7" fill="#E77B23" sketch:type="MSShapeGroup" mask="url(#mask-6)"></path>
            </g>
            <g id="Group-12" transform="translate(71.338667, 276.702564)">
                <mask id="mask-8" sketch:name="Clip 11" fill="white">
                    <use xlink:href="#path-7"></use>
                </mask>
                <g id="Clip-11"></g>
                <path d="M0.137813333,0.174205128 L206.225493,0.174205128 L206.225493,118.260974 L0.137813333,118.260974 L0.137813333,0.174205128 Z" id="Fill-10" fill="#E77B23" sketch:type="MSShapeGroup" mask="url(#mask-8)"></path>
            </g>
            <g id="Group-15" transform="translate(155.648000, 286.628205)">
                <mask id="mask-10" sketch:name="Clip 14" fill="white">
                    <use xlink:href="#path-9"></use>
                </mask>
                <g id="Clip-14"></g>
                <path d="M0.09728,-0.00405128205 L11.94112,-0.00405128205 L11.94112,11.5177949 L0.09728,11.5177949 L0.09728,-0.00405128205 Z" id="Fill-13" fill="#E77B23" sketch:type="MSShapeGroup" mask="url(#mask-10)"></path>
            </g>
        </g>
    </g>
</svg>