<?xml version="1.0" encoding="UTF-8" standalone="no"?>
<svg width="368px" height="244px" viewBox="0 0 368 244" version="1.1" xmlns="http://www.w3.org/2000/svg" xmlns:xlink="http://www.w3.org/1999/xlink">
    <!-- Generator: Sketch 39.1 (31720) - http://www.bohemiancoding.com/sketch -->
    <title>vipstonight</title>
    <desc>Created with Sketch.</desc>
    <defs></defs>
    <g id="Microsite" stroke="none" stroke-width="1" fill="none" fill-rule="evenodd">
        <g id="Projects-Page" transform="translate(-97.000000, -268.000000)">
            <g id="vipstonight" transform="translate(97.000000, 268.000000)">
                <rect id="Rectangle" fill="#FFD54F" x="0" y="0" width="368" height="244"></rect>
                <g id="Group" transform="translate(49.000000, 47.000000)">
                    <g id="logo_text" transform="translate(0.000000, 113.810316)" font-size="36" font-family="BigJohn, Big John" fill="#FFFFFF" font-weight="normal">
                        <text id="VIPsTONIGHT">
                            <tspan x="0.3742391" y="27.0413145">VIPsTONIGHT</tspan>
                        </text>
                    </g>
                    <g id="logo_seal" transform="translate(84.828837, 0.000000)">
                        <path d="M16.1448821,85.8853231 C14.2427647,84.4641886 12.8874294,82.3562401 12.4409499,79.9055989 L10.0451223,66.7386173 L1.99167083,56.0392337 C-0.508050169,52.7207006 -0.594818287,48.1955838 1.77360885,44.7795893 L9.40435113,33.7749975 L11.2847076,20.5239483 C11.7525133,17.2458817 13.9288518,14.3830236 16.9688756,13.0593151 C17.65246,12.7592365 18.3714366,12.5415156 19.105826,12.4072924 L32.2951509,10.013788 L43.0107281,1.97464529 C43.6089715,1.52523982 44.2580198,1.14736307 44.9396062,0.850419195 C48.0241558,-0.497797189 51.5188559,-0.158677025 54.2880147,1.75549957 L65.3064241,9.37230944 L78.5788067,11.252859 C82.6991506,11.8359177 85.9643719,14.9749165 86.7093219,19.061457 L89.1054349,32.2290085 L97.1588863,42.9263973 C99.3389603,45.8220682 99.6820369,49.6358854 98.1632881,52.8309154 C97.8818513,53.7423393 97.4587377,54.6220662 96.8933534,55.4375229 L89.6479549,65.8863954 L87.866135,78.4419677 C87.7412308,79.3183552 87.4944393,80.1647407 87.141811,80.9599034 C86.2948241,83.4648052 84.4099672,85.5606717 81.9500711,86.631777 C81.2778227,86.9268793 80.5707689,87.1409897 79.848558,87.272987 L66.8779529,89.6267998 L56.340073,97.5326286 C55.7517504,97.9745816 55.1134653,98.346192 54.4431817,98.6382116 C51.4097835,99.9640704 47.9730363,99.6305739 45.2497987,97.7481403 L34.4141085,90.2576406 L21.3618231,88.4082764 C19.3481751,88.1233305 17.5422052,87.2176397 16.1448821,85.8853231 Z" fill="#FFFFFF"></path>
                        <g id="Martini" transform="translate(27.685880, 33.377457)">
                            <path d="M22.548294,19.8057575 L22.548294,40.0389774" id="Line" stroke="#FFD54F" stroke-width="1.5" stroke-linecap="square"></path>
                            <ellipse id="Oval-3" fill="#FFD54F" cx="22.2628726" cy="42.1762893" rx="9.41890762" ry="1.42487464"></ellipse>
                            <polygon id="Triangle-1" fill="#FFD54F" points="0 0 45.096588 4.39685764e-15 22.548294 21.6580945"></polygon>
                        </g>
                    </g>
                </g>
            </g>
        </g>
    </g>
</svg>